<?xml version="1.0" encoding="utf-8"?>
<svg viewBox="74.399 72.364 185.557 46.236" xmlns="http://www.w3.org/2000/svg">
  <defs>
    <clipPath id="e788c99493">
      <path d="M 105 103 L 118.523438 103 L 118.523438 114 L 105 114 Z M 105 103 " clip-rule="nonzero"/>
    </clipPath>
    <clipPath id="f744c22625">
      <path d="M 75.191406 103 L 116 103 L 116 117.890625 L 75.191406 117.890625 Z M 75.191406 103 " clip-rule="nonzero"/>
    </clipPath>
    <clipPath id="b55663d3f3">
      <path d="M 75.191406 102 L 118.523438 102 L 118.523438 117.890625 L 75.191406 117.890625 Z M 75.191406 102 " clip-rule="nonzero"/>
    </clipPath>
  </defs>
  <g fill="#314f50" fill-opacity="1">
    <g transform="translate(124.782647, 103.460693)">
      <g>
        <path d="M 8.835938 0.394531 C 13.128906 0.394531 15.75 -1.785156 15.75 -5.265625 C 15.75 -9.371094 12.039062 -10.203125 9.046875 -10.878906 C 7.027344 -11.339844 5.3125 -11.734375 5.3125 -13.011719 C 5.3125 -14.125 6.472656 -14.589844 7.652344 -14.589844 C 9.394531 -14.589844 10.597656 -13.683594 11.015625 -12.175781 L 15.308594 -12.175781 C 14.75 -16.121094 11.457031 -18.066406 7.746094 -18.066406 C 4.128906 -18.066406 1.183594 -16.328125 1.183594 -12.664062 C 1.183594 -8.765625 4.730469 -7.976562 7.699219 -7.304688 C 9.789062 -6.84375 11.574219 -6.449219 11.574219 -5.054688 C 11.574219 -3.664062 10.226562 -3.085938 8.8125 -3.085938 C 7.214844 -3.085938 5.613281 -3.6875 5.007812 -6.007812 L 0.71875 -6.007812 C 1.042969 -1.042969 5.496094 0.394531 8.835938 0.394531 Z M 8.835938 0.394531 "/>
      </g>
    </g>
  </g>
  <g fill="#314f50" fill-opacity="1">
    <g transform="translate(141.293839, 103.460693)">
      <g>
        <path d="M 7.605469 0.277344 C 11.316406 0.277344 13.335938 -1.949219 14.078125 -4.546875 L 10.160156 -4.546875 C 9.832031 -3.734375 9 -3.0625 7.816406 -3.0625 C 6.84375 -3.0625 6.054688 -3.363281 5.496094 -4.058594 C 5.171875 -4.453125 4.917969 -5.101562 4.824219 -5.75 L 14.285156 -5.75 L 14.285156 -6.425781 C 14.285156 -11.503906 10.945312 -13.429688 7.492188 -13.429688 C 2.738281 -13.429688 0.742188 -9.8125 0.742188 -6.472656 C 0.742188 -2.574219 3.433594 0.277344 7.605469 0.277344 Z M 4.941406 -8.511719 C 4.988281 -8.8125 5.101562 -9.253906 5.542969 -9.695312 C 6.101562 -10.25 6.84375 -10.460938 7.628906 -10.460938 C 8.417969 -10.460938 9.160156 -10.25 9.71875 -9.695312 C 10.136719 -9.277344 10.273438 -8.8125 10.34375 -8.511719 Z M 4.941406 -8.511719 "/>
      </g>
    </g>
  </g>
  <g fill="#314f50" fill-opacity="1">
    <g transform="translate(156.320879, 103.460693)">
      <g>
        <path d="M 7.585938 0.277344 C 10.878906 0.277344 13.40625 -1.507812 14.054688 -4.546875 L 9.8125 -4.546875 C 9.554688 -3.457031 8.90625 -2.828125 7.585938 -2.828125 C 5.84375 -2.828125 4.753906 -4.265625 4.753906 -6.65625 C 4.753906 -8.953125 5.84375 -10.34375 7.585938 -10.34375 C 8.742188 -10.34375 9.417969 -9.832031 9.765625 -8.765625 L 14.03125 -8.765625 C 13.359375 -11.621094 10.902344 -13.429688 7.585938 -13.429688 C 3.457031 -13.429688 0.742188 -10.691406 0.742188 -6.65625 C 0.742188 -2.457031 3.480469 0.277344 7.585938 0.277344 Z M 7.585938 0.277344 "/>
      </g>
    </g>
  </g>
  <g fill="#314f50" fill-opacity="1">
    <g transform="translate(171.000073, 103.460693)">
      <g>
        <path d="M 7.652344 0.277344 C 11.828125 0.277344 14.566406 -2.480469 14.566406 -6.65625 C 14.566406 -10.667969 11.78125 -13.429688 7.652344 -13.429688 C 3.523438 -13.429688 0.742188 -10.691406 0.742188 -6.65625 C 0.742188 -2.457031 3.546875 0.277344 7.652344 0.277344 Z M 7.652344 -3.0625 C 5.914062 -3.0625 4.753906 -4.453125 4.753906 -6.65625 C 4.753906 -8.71875 5.914062 -10.113281 7.652344 -10.113281 C 9.417969 -10.113281 10.507812 -8.699219 10.507812 -6.65625 C 10.507812 -4.5 9.417969 -3.0625 7.652344 -3.0625 Z M 7.652344 -3.0625 "/>
      </g>
    </g>
  </g>
  <g fill="#314f50" fill-opacity="1">
    <g transform="translate(186.305375, 103.460693)">
      <g>
        <path d="M 5.171875 0 L 5.171875 -7.398438 C 5.171875 -8.535156 5.335938 -9.183594 5.660156 -9.625 C 6.007812 -10.113281 6.585938 -10.296875 7.398438 -10.296875 C 8.046875 -10.296875 8.511719 -10.160156 8.835938 -9.8125 C 9.230469 -9.394531 9.394531 -8.699219 9.394531 -7.398438 L 9.394531 0 L 13.289062 0 L 13.289062 -7.351562 C 13.289062 -8.976562 13.289062 -10.019531 12.78125 -11.15625 C 12.246094 -12.363281 11.132812 -13.429688 8.535156 -13.429688 C 7.144531 -13.429688 6.054688 -13.058594 5.171875 -11.734375 L 5.171875 -13.152344 L 1.277344 -13.152344 L 1.277344 0 Z M 5.171875 0 "/>
      </g>
    </g>
  </g>
  <g fill="#314f50" fill-opacity="1">
    <g transform="translate(200.775865, 103.460693)">
      <g>
        <path d="M 6.515625 0.277344 C 7.910156 0.277344 9 -0.09375 9.878906 -1.414062 L 9.878906 0 L 13.777344 0 L 13.777344 -17.695312 L 9.878906 -17.695312 L 9.878906 -11.734375 C 9 -13.058594 7.910156 -13.429688 6.515625 -13.429688 C 3.152344 -13.429688 0.789062 -10.597656 0.789062 -6.585938 C 0.789062 -2.550781 3.152344 0.277344 6.515625 0.277344 Z M 7.605469 -3.039062 C 5.867188 -3.039062 4.730469 -4.5 4.730469 -6.585938 C 4.730469 -8.652344 5.867188 -10.113281 7.605469 -10.113281 C 9.324219 -10.113281 10.484375 -8.699219 10.484375 -6.585938 C 10.484375 -4.453125 9.324219 -3.039062 7.605469 -3.039062 Z M 7.605469 -3.039062 "/>
      </g>
    </g>
  </g>
  <g fill="#314f50" fill-opacity="1">
    <g transform="translate(215.826083, 103.460693)">
      <g>
        <path d="M 12.757812 0 L 12.757812 -3.710938 L 5.542969 -3.710938 L 5.542969 -17.695312 L 1.390625 -17.695312 L 1.390625 0 Z M 12.757812 0 "/>
      </g>
    </g>
  </g>
  <g fill="#314f50" fill-opacity="1">
    <g transform="translate(228.766041, 103.460693)">
      <g>
        <path d="M 3.222656 -14.054688 C 4.429688 -14.054688 5.425781 -14.796875 5.425781 -16.050781 C 5.425781 -17.277344 4.429688 -18.066406 3.222656 -18.066406 C 2.019531 -18.066406 1.019531 -17.277344 1.019531 -16.050781 C 1.019531 -14.796875 2.019531 -14.054688 3.222656 -14.054688 Z M 5.171875 0 L 5.171875 -13.152344 L 1.277344 -13.152344 L 1.277344 0 Z M 5.171875 0 "/>
      </g>
    </g>
  </g>
  <g fill="#314f50" fill-opacity="1">
    <g transform="translate(235.212815, 103.460693)">
      <g>
        <path d="M 6.308594 0 L 6.308594 -10.136719 L 8.28125 -10.136719 L 8.28125 -13.152344 L 6.308594 -13.152344 L 6.308594 -13.847656 C 6.308594 -14.566406 6.773438 -14.703125 7.074219 -14.703125 L 8.28125 -14.703125 L 8.28125 -17.695312 L 6.121094 -17.695312 C 3.710938 -17.695312 2.367188 -16.492188 2.367188 -14.425781 L 2.367188 -13.152344 L 0.488281 -13.152344 L 0.488281 -10.136719 L 2.367188 -10.136719 L 2.367188 0 Z M 6.308594 0 "/>
      </g>
    </g>
  </g>
  <g fill="#314f50" fill-opacity="1">
    <g transform="translate(243.97858, 103.460693)">
      <g>
        <path d="M 7.605469 0.277344 C 11.316406 0.277344 13.335938 -1.949219 14.078125 -4.546875 L 10.160156 -4.546875 C 9.832031 -3.734375 9 -3.0625 7.816406 -3.0625 C 6.84375 -3.0625 6.054688 -3.363281 5.496094 -4.058594 C 5.171875 -4.453125 4.917969 -5.101562 4.824219 -5.75 L 14.285156 -5.75 L 14.285156 -6.425781 C 14.285156 -11.503906 10.945312 -13.429688 7.492188 -13.429688 C 2.738281 -13.429688 0.742188 -9.8125 0.742188 -6.472656 C 0.742188 -2.574219 3.433594 0.277344 7.605469 0.277344 Z M 4.941406 -8.511719 C 4.988281 -8.8125 5.101562 -9.253906 5.542969 -9.695312 C 6.101562 -10.25 6.84375 -10.460938 7.628906 -10.460938 C 8.417969 -10.460938 9.160156 -10.25 9.71875 -9.695312 C 10.136719 -9.277344 10.273438 -8.8125 10.34375 -8.511719 Z M 4.941406 -8.511719 "/>
      </g>
    </g>
  </g>
  <path fill="#f48ca7" d="M 83.726562 86.457031 C 83.726562 92.964844 87.835938 95.988281 91.78125 98.371094 C 94.675781 100.121094 97.484375 101.53125 98.5 103.726562 C 100.902344 98.546875 113.273438 97.746094 113.273438 86.457031 C 113.078125 78.75 101.644531 75.171875 98.5 85.421875 C 97.351562 81.683594 95.101562 79.785156 92.695312 79.253906 C 88.507812 78.332031 83.851562 81.5625 83.726562 86.457031 Z M 83.726562 86.457031 " fill-opacity="1" fill-rule="nonzero"/>
  <g clip-path="url(#e788c99493)">
    <path fill="#f7b6ad" d="M 106.480469 113.203125 C 106.253906 113.417969 106 113.601562 105.730469 113.757812 C 107.605469 113.757812 108.332031 113.40625 109.804688 112.207031 C 112.890625 109.753906 115.914062 106.710938 117.78125 105.023438 C 118.320312 104.539062 118.089844 103.621094 117.445312 103.304688 C 116.789062 102.984375 115.980469 103.242188 114.710938 103.652344 C 115.351562 103.964844 115.503906 104.820312 115.046875 105.367188 C 113.363281 107.398438 109.714844 110.140625 106.480469 113.203125 Z M 106.480469 113.203125 " fill-opacity="1" fill-rule="nonzero"/>
  </g>
  <g clip-path="url(#f744c22625)">
    <path fill="#ffd7d2" d="M 106.613281 106.636719 C 106.703125 106.351562 106.605469 106.148438 106.605469 106.148438 C 106.035156 103.574219 101.988281 104.878906 100.566406 105.277344 C 98.195312 105.949219 96.78125 105.613281 94.285156 105.074219 C 82.359375 101.253906 82.660156 107.179688 82.660156 107.179688 L 75.480469 107.179688 L 75.480469 117.542969 L 88.519531 117.542969 C 89.410156 117.542969 90.183594 117.488281 91.207031 117.324219 C 94.6875 116.902344 102.355469 115.054688 105.210938 114 C 105.390625 113.933594 105.5625 113.851562 105.730469 113.757812 C 106 113.601562 106.253906 113.417969 106.480469 113.203125 C 109.714844 110.140625 113.363281 107.398438 115.046875 105.367188 C 115.503906 104.820312 115.351562 103.964844 114.710938 103.652344 C 113.503906 103.066406 110.878906 103.363281 106.613281 106.636719 Z M 106.613281 106.636719 " fill-opacity="1" fill-rule="nonzero"/>
  </g>
  <path fill="#3a322b" d="M 104.222656 99.367188 C 101.765625 100.820312 99.644531 102.074219 98.8125 103.871094 C 98.753906 103.992188 98.632812 104.070312 98.5 104.070312 C 98.367188 104.070312 98.242188 103.992188 98.1875 103.871094 C 97.351562 102.074219 95.230469 100.820312 92.777344 99.367188 C 88.59375 96.890625 83.382812 93.8125 83.382812 86.449219 C 83.480469 82.621094 86.425781 79.34375 90.234375 78.824219 C 93.109375 78.429688 96.695312 79.714844 98.5 84.371094 C 100.304688 79.71875 103.886719 78.429688 106.761719 78.824219 C 110.574219 79.34375 113.519531 82.621094 113.617188 86.457031 C 113.617188 93.8125 108.40625 96.890625 104.222656 99.367188 Z M 106.667969 79.503906 C 106.382812 79.464844 106.089844 79.445312 105.792969 79.445312 C 103.1875 79.445312 100.207031 81.019531 98.828125 85.523438 C 98.785156 85.667969 98.648438 85.765625 98.5 85.765625 C 98.347656 85.765625 98.214844 85.667969 98.171875 85.523438 C 96.632812 80.503906 93.109375 79.121094 90.328125 79.503906 C 87.371094 79.90625 84.171875 82.484375 84.070312 86.457031 C 84.070312 93.421875 88.882812 96.265625 93.128906 98.777344 C 95.332031 100.082031 97.429688 101.320312 98.5 103.011719 C 99.566406 101.320312 101.664062 100.082031 103.871094 98.777344 C 108.117188 96.265625 112.929688 93.421875 112.929688 86.464844 C 112.828125 82.484375 109.628906 79.90625 106.667969 79.503906 Z M 106.667969 79.503906 " fill-opacity="1" fill-rule="nonzero"/>
  <g clip-path="url(#b55663d3f3)">
    <path fill="#3a322b" d="M 75.480469 106.839844 L 82.339844 106.839844 C 82.402344 106.308594 82.65625 105.292969 83.683594 104.503906 C 85.625 103.011719 89.226562 103.09375 94.355469 104.738281 L 94.535156 104.773438 C 96.925781 105.292969 98.242188 105.578125 100.472656 104.949219 L 100.703125 104.882812 C 102.027344 104.503906 104.5 103.792969 105.949219 104.65625 C 106.441406 104.949219 106.765625 105.394531 106.917969 105.980469 C 111.472656 102.628906 113.820312 102.910156 114.730469 103.285156 C 115.988281 102.878906 116.835938 102.625 117.597656 102.996094 C 118.03125 103.207031 118.34375 103.640625 118.410156 104.128906 C 118.472656 104.574219 118.328125 104.992188 118.011719 105.277344 C 117.480469 105.761719 116.863281 106.34375 116.144531 107.019531 C 114.402344 108.667969 112.230469 110.71875 110.023438 112.472656 C 108.519531 113.695312 107.730469 114.089844 105.8125 114.097656 C 105.65625 114.183594 105.496094 114.261719 105.332031 114.320312 C 102.382812 115.414062 94.617188 117.257812 91.261719 117.664062 C 90.269531 117.824219 89.476562 117.886719 88.523438 117.886719 L 75.480469 117.886719 C 75.292969 117.886719 75.136719 117.734375 75.136719 117.542969 L 75.136719 107.183594 C 75.136719 106.992188 75.292969 106.839844 75.480469 106.839844 Z M 115.671875 106.523438 C 116.390625 105.84375 117.011719 105.257812 117.550781 104.769531 C 117.75 104.589844 117.75 104.351562 117.730469 104.226562 C 117.691406 103.960938 117.527344 103.726562 117.296875 103.613281 C 116.851562 103.398438 116.242188 103.53125 115.386719 103.796875 C 115.496094 103.953125 115.578125 104.128906 115.621094 104.320312 C 115.71875 104.773438 115.605469 105.234375 115.3125 105.585938 C 114.296875 106.8125 112.628906 108.25 110.699219 109.910156 C 109.417969 111.011719 108.097656 112.152344 106.816406 113.355469 C 107.863281 113.222656 108.496094 112.828125 109.589844 111.9375 C 111.777344 110.199219 113.9375 108.160156 115.671875 106.523438 Z M 75.824219 117.199219 L 88.519531 117.199219 C 89.4375 117.199219 90.199219 117.140625 91.164062 116.984375 C 94.496094 116.582031 102.175781 114.757812 105.09375 113.675781 C 105.507812 113.523438 105.898438 113.277344 106.242188 112.953125 C 107.566406 111.699219 108.929688 110.527344 110.25 109.390625 C 112.15625 107.75 113.804688 106.332031 114.785156 105.148438 C 114.941406 104.957031 115 104.710938 114.949219 104.464844 C 114.902344 104.242188 114.757812 104.058594 114.5625 103.960938 C 114.382812 103.875 114.039062 103.753906 113.492188 103.753906 C 112.328125 103.753906 110.246094 104.296875 106.902344 106.847656 C 106.902344 106.847656 106.902344 106.851562 106.902344 106.851562 C 106.667969 107.410156 106.027344 107.863281 104.980469 108.203125 C 103.503906 108.59375 101.105469 109.488281 99.851562 110.113281 C 98.910156 110.582031 97.804688 110.824219 96.46875 110.855469 C 96.28125 110.859375 96.09375 110.859375 95.902344 110.863281 C 95.105469 110.871094 94.28125 110.878906 93.65625 111.039062 C 93.183594 111.195312 92.949219 111.273438 92.609375 111.847656 C 92.511719 112.011719 92.304688 112.066406 92.140625 111.96875 C 91.976562 111.871094 91.921875 111.664062 92.015625 111.5 C 92.488281 110.703125 92.929688 110.558594 93.445312 110.386719 C 93.449219 110.386719 93.484375 110.375 93.492188 110.375 C 94.191406 110.195312 95.058594 110.183594 95.894531 110.175781 C 96.082031 110.171875 96.269531 110.171875 96.453125 110.167969 C 97.683594 110.140625 98.695312 109.921875 99.542969 109.5 C 100.832031 108.855469 103.292969 107.941406 104.785156 107.546875 C 105.851562 107.199219 106.164062 106.808594 106.257812 106.609375 C 106.265625 106.585938 106.277344 106.566406 106.28125 106.546875 C 106.285156 106.539062 106.285156 106.53125 106.289062 106.523438 C 106.328125 106.390625 106.292969 106.300781 106.292969 106.300781 C 106.28125 106.273438 106.273438 106.25 106.265625 106.21875 C 106.167969 105.773438 105.949219 105.457031 105.59375 105.246094 C 104.402344 104.535156 102.03125 105.21875 100.890625 105.546875 L 100.660156 105.613281 C 98.261719 106.289062 96.804688 105.972656 94.390625 105.449219 L 94.179688 105.398438 C 88.046875 103.4375 85.320312 104.121094 84.117188 105.039062 C 82.96875 105.914062 83.003906 107.117188 83.007812 107.164062 C 83.011719 107.257812 82.976562 107.351562 82.914062 107.417969 C 82.847656 107.488281 82.757812 107.527344 82.664062 107.527344 L 75.824219 107.527344 Z M 75.824219 117.199219 " fill-opacity="1" fill-rule="nonzero"/>
  </g>
</svg>